<svg id="leo9-logo-final" xmlns="http://www.w3.org/2000/svg" width="120" height="113.115" viewBox="0 0 120 113.115">
  <g id="Group_629" data-name="Group 629" transform="translate(0 0)">
    <path id="Path_98" data-name="Path 98" d="M72.558,129.831l-15.41-11.557L38.38,108.113l.59-21.266L31.14,67.064l14.122-15.91,6.719-20.186,21.046-3.11L91.148,16.716l17.984,11.048.2-.017.105.133L130.3,30.961l6.5,19.554.226.649L151.14,67.057l-7.828,19.782.59,21.266L125.156,118.25l-13.192,11.557Zm38.486-2.47,10.689-9.375-14.075,2.189L96.173,127.36Zm-23.178,0L76.372,120.41,61.293,118.3l12.086,9.064Zm3.455-.5,14.651-8.534s-10.568-2.951-14.819-2.951c-4.293,0-13.106,2.947-13.106,2.947Zm-14.957-8.942C72.334,108.167,62.632,102.827,54.7,100l5.335,15.637Zm52.719-18.63c-9.65,1.87-16.449,7.74-21.286,18.369l16.146-2.512ZM57.416,115.608l-5.162-15.127L41.4,88.431l-.51,18.242ZM54.732,97.385a51.124,51.124,0,0,1,13,6.435,30.793,30.793,0,0,1,10.3,11.761l11.967-7.735V96.9L75.264,89.055,79.77,75.288,63.591,61.448l-4.944-2.04-8.838,9.623L61.3,84.072Zm51.329,18.152c4.983-10.368,11.787-16.238,21.368-18.432l-6.994-14.134,11.991-14-8.756-9.533-5.026,2.06L102.589,75.236l4.521,13.82L92.456,96.908v10.944Zm20.644-.914,14.705-7.956-.488-17.579-9.435,10.789Zm3.639-17.19,10.368-11.87-6.18-15.278L123.355,83.333ZM52.265,96.8l6.154-12.431L48.561,71.451,42.813,86.287Zm51.787-9.139L97.457,67.507l25.068-10.283-3.4-12.21H100.262L91.084,34.067,81.056,45.015H64.08l-4.249,12.21L84.9,67.507,78.308,87.66ZM40.77,84.7l5.809-15.008-.556-15.681L33.989,67.567Zm101.493-1.89,6.03-15.242L136.967,54.8l-.284,14.207ZM80.587,72.734l1.248-3.816L70.879,64.426Zm21.162-.044,9.588-8.207-10.82,4.438Zm32.5-5.374.308-15.2-12.771-6.785,3.229,11.6.241.591ZM48.927,66.34l8.23-8.957L61.22,45.732,48.456,52.76Zm-.71-16.259,13.806-7.6,9.26-11.862L53.835,33.2Zm85.438-1.219-5.211-15.65-16.726-2.47,9.112,11.313Zm-15.582-6.319L108.238,30.33,92.449,31.868l8.959,10.675Zm-38.111,0,9.768-10.667L74.419,30.59,65.09,42.543ZM91.138,29.514l13.918-1.36L91.143,19.6l-14.18,8.721Z" transform="translate(-31.14 -16.716)" fill="#0b0b0b"/>
  </g>
</svg>
