<svg xmlns="http://www.w3.org/2000/svg" width="127.332" height="63.067" viewBox="0 0 127.332 63.067"><g transform="translate(-143 -7)"><path d="M54.233,79.783l-8.592-6.444L35.177,67.675l.329-11.857L31.14,44.788l7.874-8.871L42.76,24.662l11.734-1.734,10.1-6.212,10.027,6.16.113-.009.059.074,11.633,1.718,3.626,10.9.126.362,7.865,8.861L93.681,55.813,94.01,67.67,83.559,73.326,76.2,79.77Zm21.458-1.377,5.96-5.227L73.8,74.4l-6.4,4.006Zm-12.923,0-6.409-3.876-8.407-1.178,6.739,5.054Zm1.927-.278,8.169-4.758s-5.892-1.645-8.262-1.645c-2.394,0-7.307,1.643-7.307,1.643Zm-8.339-4.985C54.108,67.7,48.7,64.727,44.273,63.15l2.975,8.718ZM85.749,62.756C80.368,63.8,76.578,67.072,73.881,73l9-1.4Zm-39.959,9.1L42.912,63.42,36.86,56.7l-.284,10.171Zm-1.5-10.16a28.5,28.5,0,0,1,7.246,3.588,17.169,17.169,0,0,1,5.742,6.558l6.672-4.313v-6.1l-8.212-4.376,2.512-7.676-9.02-7.717-2.757-1.137-4.928,5.365,6.409,8.386ZM72.912,71.814c2.778-5.781,6.572-9.054,11.914-10.277l-3.9-7.88,6.685-7.8L82.73,40.537l-2.8,1.149-8.951,7.658L73.5,57.049l-8.17,4.378v6.1Zm11.51-.51,8.2-4.436-.272-9.8-5.26,6.016Zm2.029-9.584L92.232,55.1l-3.446-8.518-6.232,7.275Zm-43.533-.353,3.431-6.931-5.5-7.2-3.2,8.272Zm28.874-5.1L68.115,45.035,82.092,39.3l-1.9-6.808H69.679l-5.117-6.1-5.591,6.1H49.506L47.137,39.3l13.977,5.733L57.438,56.271ZM36.509,54.618l3.239-8.368-.31-8.743-6.71,7.56ZM93.1,53.564l3.362-8.5L90.144,37.95l-.158,7.921ZM58.709,47.949l.7-2.127-6.108-2.5Zm11.8-.025,5.346-4.576-6.033,2.474Zm18.12-3,.172-8.476-7.12-3.783,1.8,6.467.135.33Zm-47.571-.544,4.588-4.994,2.266-6.5-7.117,3.918Zm-.4-9.065,7.7-4.239,5.163-6.613L43.794,25.9ZM88.3,34.639l-2.905-8.726-9.326-1.377,5.08,6.307Zm-8.688-3.523-5.483-6.81-8.8.858,4.995,5.952Zm-21.249,0,5.446-5.947-8.536-.717-5.2,6.665Zm6.232-7.264,7.76-.758-7.757-4.77-7.906,4.862Z" transform="translate(111.86 -9.716)" fill="#0b0b0b"/><g transform="translate(221.202 44.932)" style="isolation:isolate"><g style="isolation:isolate"><path d="M113.664,64.4l.831-.484a2.631,2.631,0,0,0,2.781,1.909c1.467,0,2.283-.706,2.283-1.744,0-1.121-.954-1.481-2.379-1.951-1.578-.527-3.1-.941-3.1-2.726a2.707,2.707,0,0,1,2.976-2.658,3.4,3.4,0,0,1,3.2,2.09l-.816.458a2.453,2.453,0,0,0-2.381-1.606c-1.162,0-2.007.609-2.007,1.675s.831,1.384,2.145,1.813c1.758.581,3.336,1.079,3.336,2.879,0,1.66-1.329,2.712-3.266,2.712A3.554,3.554,0,0,1,113.664,64.4Z" transform="translate(-113.664 -56.744)" fill="#0b0b0b"/><path d="M128.7,57.834h-2.976v8.774h-.969V57.834h-2.975V56.92h6.92Z" transform="translate(-114.089 -56.753)" fill="#0b0b0b"/><path d="M130.766,63.314V56.92h.968v6.394a2.632,2.632,0,0,0,5.259,0V56.92h.969v6.394a3.6,3.6,0,0,1-7.2,0Z" transform="translate(-114.56 -56.753)" fill="#0b0b0b"/><path d="M149.22,61.763a4.62,4.62,0,0,1-4.567,4.844h-3.737V56.92h3.737A4.62,4.62,0,0,1,149.22,61.763Zm-.942,0a3.687,3.687,0,0,0-3.625-3.93h-2.768v7.861h2.768A3.688,3.688,0,0,0,148.278,61.763Z" transform="translate(-115.091 -56.753)" fill="#0b0b0b"/><path d="M152.765,56.92v9.688H151.8V56.92Z" transform="translate(-115.661 -56.753)" fill="#0b0b0b"/><path d="M154.937,61.754a5.01,5.01,0,1,1,5.009,5.01A4.973,4.973,0,0,1,154.937,61.754Zm9.051,0a4.041,4.041,0,1,0-4.042,4.069A4.008,4.008,0,0,0,163.988,61.754Z" transform="translate(-115.826 -56.744)" fill="#0b0b0b"/></g></g><g transform="translate(221.33 25.91)" style="isolation:isolate"><g style="isolation:isolate"><path d="M121.8,49.936V51.29h-8V36.93h1.436V49.936Z" transform="translate(-113.799 -36.685)" fill="#0b0b0b"/><path d="M133.9,49.936V51.29h-8.41V36.93h8.308v1.354h-6.872v5.088h6.36v1.354h-6.36v5.21Z" transform="translate(-114.411 -36.685)" fill="#0b0b0b"/><path d="M137.067,44.1a7.426,7.426,0,1,1,7.426,7.426A7.372,7.372,0,0,1,137.067,44.1Zm13.416,0a5.99,5.99,0,1,0-5.99,6.032A5.941,5.941,0,0,0,150.483,44.1Z" transform="translate(-115.018 -36.671)" fill="#0b0b0b"/><path d="M164.095,44.281l-4.7,7h-1.62l3.528-5.252a5.364,5.364,0,0,1-1.149.122,4.739,4.739,0,1,1,4.821-4.738A4.87,4.87,0,0,1,164.095,44.281Zm-3.938.472a3.344,3.344,0,1,0-3.385-3.344A3.176,3.176,0,0,0,160.157,44.753Z" transform="translate(-115.974 -36.671)" fill="#0b0b0b"/></g></g></g></svg>